<svg width="23" height="25" viewBox="0 0 23 25" fill="none" xmlns="http://www.w3.org/2000/svg">
<path d="M22.0548 23.7999L20.2508 6.99229C20.2207 6.72168 19.9802 6.51121 19.7096 6.51121H16.3721V5.48892C16.3721 2.60245 14.0269 0.257202 11.1404 0.257202C8.25393 0.257202 5.90868 2.60245 5.90868 5.48892V6.51121H2.481C2.2104 6.51121 1.96986 6.72168 1.93979 6.99229L0.135751 23.7999C0.105684 23.9503 0.165818 24.1006 0.25602 24.2209C0.346222 24.3411 0.496559 24.4013 0.646896 24.4013H21.5437C21.694 24.4013 21.8444 24.3411 21.9346 24.2209C22.0248 24.1006 22.0849 23.9503 22.0548 23.7999ZM15.8309 9.54801C16.1015 9.54801 16.312 9.75848 16.312 10.0291C16.312 10.2997 16.1015 10.5102 15.8309 10.5102C15.5603 10.5102 15.3498 10.2997 15.3498 10.0291C15.3498 9.75848 15.5603 9.54801 15.8309 9.54801ZM6.99111 5.48892C6.99111 3.2038 8.85528 1.33963 11.1404 1.33963C13.4255 1.33963 15.2897 3.2038 15.2897 5.48892V6.51121H6.99111V5.48892ZM6.44989 9.54801C6.7205 9.54801 6.93097 9.75848 6.93097 10.0291C6.93097 10.2997 6.7205 10.5102 6.44989 10.5102C6.17929 10.5102 5.96882 10.2997 5.96882 10.0291C5.96882 9.75848 6.17929 9.54801 6.44989 9.54801ZM1.27831 23.2888L2.96208 7.56357H5.90868V8.55579C5.30733 8.76626 4.88639 9.33754 4.88639 9.99902C4.88639 10.8409 5.57794 11.5325 6.41983 11.5325C7.26171 11.5325 7.95326 10.8409 7.95326 9.99902C7.95326 9.33754 7.53232 8.76626 6.93097 8.55579V7.56357H15.2296V8.55579C14.6282 8.76626 14.2073 9.33754 14.2073 9.99902C14.2073 10.8409 14.8988 11.5325 15.7407 11.5325C16.5826 11.5325 17.2741 10.8409 17.2741 9.99902C17.2741 9.33754 16.8532 8.76626 16.2518 8.55579V7.56357H19.3187L21.0025 23.2888H1.27831Z" fill="#4C5228"/>
</svg>
