<svg width="238" height="56" viewBox="0 0 238 56" fill="none" xmlns="http://www.w3.org/2000/svg">
<path d="M6.70311 14.4131C5.64311 14.4131 4.68311 14.1831 3.82311 13.7231C2.97311 13.2531 2.30311 12.6081 1.81311 11.7881C1.33311 10.9681 1.09311 10.0431 1.09311 9.01306C1.09311 7.98306 1.33811 7.05806 1.82811 6.23806C2.31811 5.41806 2.98811 4.77806 3.83811 4.31806C4.69811 3.84806 5.65811 3.61306 6.71811 3.61306C7.57811 3.61306 8.36311 3.76306 9.07311 4.06306C9.78311 4.36306 10.3831 4.79806 10.8731 5.36806L9.61311 6.55306C8.85311 5.73306 7.91811 5.32306 6.80811 5.32306C6.08811 5.32306 5.44311 5.48306 4.87311 5.80306C4.30311 6.11306 3.85811 6.54806 3.53811 7.10806C3.21811 7.66806 3.05811 8.30306 3.05811 9.01306C3.05811 9.72306 3.21811 10.3581 3.53811 10.9181C3.85811 11.4781 4.30311 11.9181 4.87311 12.2381C5.44311 12.5481 6.08811 12.7031 6.80811 12.7031C7.91811 12.7031 8.85311 12.2881 9.61311 11.4581L10.8731 12.6581C10.3831 13.2281 9.77811 13.6631 9.05811 13.9631C8.34811 14.2631 7.56311 14.4131 6.70311 14.4131ZM20.0968 6.25306V14.2631H18.3118V13.2431C18.0118 13.6031 17.6368 13.8831 17.1868 14.0831C16.7368 14.2731 16.2518 14.3681 15.7318 14.3681C14.6618 14.3681 13.8168 14.0731 13.1968 13.4831C12.5868 12.8831 12.2818 11.9981 12.2818 10.8281V6.25306H14.1568V10.5731C14.1568 11.2931 14.3168 11.8331 14.6368 12.1931C14.9668 12.5431 15.4318 12.7181 16.0318 12.7181C16.7018 12.7181 17.2318 12.5131 17.6218 12.1031C18.0218 11.6831 18.2218 11.0831 18.2218 10.3031V6.25306H20.0968ZM22.5518 3.13306H24.4268V14.2631H22.5518V3.13306ZM30.4877 14.3681C29.6777 14.3681 28.9477 14.1931 28.2977 13.8431C27.6477 13.4931 27.1377 13.0081 26.7677 12.3881C26.4077 11.7581 26.2277 11.0481 26.2277 10.2581C26.2277 9.46806 26.4077 8.76306 26.7677 8.14306C27.1377 7.52306 27.6477 7.03806 28.2977 6.68806C28.9477 6.33806 29.6777 6.16306 30.4877 6.16306C31.3077 6.16306 32.0427 6.33806 32.6927 6.68806C33.3427 7.03806 33.8477 7.52306 34.2077 8.14306C34.5777 8.76306 34.7627 9.46806 34.7627 10.2581C34.7627 11.0481 34.5777 11.7581 34.2077 12.3881C33.8477 13.0081 33.3427 13.4931 32.6927 13.8431C32.0427 14.1931 31.3077 14.3681 30.4877 14.3681ZM30.4877 12.7631C31.1777 12.7631 31.7477 12.5331 32.1977 12.0731C32.6477 11.6131 32.8727 11.0081 32.8727 10.2581C32.8727 9.50806 32.6477 8.90306 32.1977 8.44306C31.7477 7.98306 31.1777 7.75306 30.4877 7.75306C29.7977 7.75306 29.2277 7.98306 28.7777 8.44306C28.3377 8.90306 28.1177 9.50806 28.1177 10.2581C28.1177 11.0081 28.3377 11.6131 28.7777 12.0731C29.2277 12.5331 29.7977 12.7631 30.4877 12.7631ZM39.5131 6.16306C40.6931 6.16306 41.5931 6.44806 42.2131 7.01806C42.8431 7.57806 43.1581 8.42806 43.1581 9.56806V14.2631H41.3881V13.2881C41.1581 13.6381 40.8281 13.9081 40.3981 14.0981C39.9781 14.2781 39.4681 14.3681 38.8681 14.3681C38.2681 14.3681 37.7431 14.2681 37.2931 14.0681C36.8431 13.8581 36.4931 13.5731 36.2431 13.2131C36.0031 12.8431 35.8831 12.4281 35.8831 11.9681C35.8831 11.2481 36.1481 10.6731 36.6781 10.2431C37.2181 9.80306 38.0631 9.58306 39.2131 9.58306H41.2831V9.46306C41.2831 8.90306 41.1131 8.47306 40.7731 8.17306C40.4431 7.87306 39.9481 7.72306 39.2881 7.72306C38.8381 7.72306 38.3931 7.79306 37.9531 7.93306C37.5231 8.07306 37.1581 8.26806 36.8581 8.51806L36.1231 7.15306C36.5431 6.83306 37.0481 6.58806 37.6381 6.41806C38.2281 6.24806 38.8531 6.16306 39.5131 6.16306ZM39.2581 13.0031C39.7281 13.0031 40.1431 12.8981 40.5031 12.6881C40.8731 12.4681 41.1331 12.1581 41.2831 11.7581V10.8281H39.3481C38.2681 10.8281 37.7281 11.1831 37.7281 11.8931C37.7281 12.2331 37.8631 12.5031 38.1331 12.7031C38.4031 12.9031 38.7781 13.0031 39.2581 13.0031ZM47.3495 7.42306C47.8895 6.58306 48.8395 6.16306 50.1995 6.16306V7.94806C50.0395 7.91806 49.8945 7.90306 49.7645 7.90306C49.0345 7.90306 48.4645 8.11806 48.0545 8.54806C47.6445 8.96806 47.4395 9.57806 47.4395 10.3781V14.2631H45.5645V6.25306H47.3495V7.42306ZM59.2468 10.3031C59.2468 10.4331 59.2368 10.6181 59.2168 10.8581H52.9318C53.0418 11.4481 53.3268 11.9181 53.7868 12.2681C54.2568 12.6081 54.8368 12.7781 55.5268 12.7781C56.4068 12.7781 57.1318 12.4881 57.7018 11.9081L58.7068 13.0631C58.3468 13.4931 57.8918 13.8181 57.3418 14.0381C56.7918 14.2581 56.1718 14.3681 55.4818 14.3681C54.6018 14.3681 53.8268 14.1931 53.1568 13.8431C52.4868 13.4931 51.9668 13.0081 51.5968 12.3881C51.2368 11.7581 51.0568 11.0481 51.0568 10.2581C51.0568 9.47806 51.2318 8.77806 51.5818 8.15806C51.9418 7.52806 52.4368 7.03806 53.0668 6.68806C53.6968 6.33806 54.4068 6.16306 55.1968 6.16306C55.9768 6.16306 56.6718 6.33806 57.2818 6.68806C57.9018 7.02806 58.3818 7.51306 58.7218 8.14306C59.0718 8.76306 59.2468 9.48306 59.2468 10.3031ZM55.1968 7.66306C54.5968 7.66306 54.0868 7.84306 53.6668 8.20306C53.2568 8.55306 53.0068 9.02306 52.9168 9.61306H57.4618C57.3818 9.03306 57.1368 8.56306 56.7268 8.20306C56.3168 7.84306 55.8068 7.66306 55.1968 7.66306ZM68.2534 6.16306C69.4334 6.16306 70.3334 6.44806 70.9534 7.01806C71.5834 7.57806 71.8984 8.42806 71.8984 9.56806V14.2631H70.1284V13.2881C69.8984 13.6381 69.5684 13.9081 69.1384 14.0981C68.7184 14.2781 68.2084 14.3681 67.6084 14.3681C67.0084 14.3681 66.4834 14.2681 66.0334 14.0681C65.5834 13.8581 65.2334 13.5731 64.9834 13.2131C64.7434 12.8431 64.6234 12.4281 64.6234 11.9681C64.6234 11.2481 64.8884 10.6731 65.4184 10.2431C65.9584 9.80306 66.8034 9.58306 67.9534 9.58306H70.0234V9.46306C70.0234 8.90306 69.8534 8.47306 69.5134 8.17306C69.1834 7.87306 68.6884 7.72306 68.0284 7.72306C67.5784 7.72306 67.1334 7.79306 66.6934 7.93306C66.2634 8.07306 65.8984 8.26806 65.5984 8.51806L64.8634 7.15306C65.2834 6.83306 65.7884 6.58806 66.3784 6.41806C66.9684 6.24806 67.5934 6.16306 68.2534 6.16306ZM67.9984 13.0031C68.4684 13.0031 68.8834 12.8981 69.2434 12.6881C69.6134 12.4681 69.8734 12.1581 70.0234 11.7581V10.8281H68.0884C67.0084 10.8281 66.4684 11.1831 66.4684 11.8931C66.4684 12.2331 66.6034 12.5031 66.8734 12.7031C67.1434 12.9031 67.5184 13.0031 67.9984 13.0031ZM84.4147 6.16306C85.4247 6.16306 86.2247 6.45806 86.8147 7.04806C87.4047 7.62806 87.6997 8.50306 87.6997 9.67306V14.2631H85.8247V9.91306C85.8247 9.21306 85.6697 8.68806 85.3597 8.33806C85.0497 7.97806 84.6047 7.79806 84.0247 7.79806C83.3947 7.79806 82.8897 8.00806 82.5097 8.42806C82.1297 8.83806 81.9397 9.42806 81.9397 10.1981V14.2631H80.0647V9.91306C80.0647 9.21306 79.9097 8.68806 79.5997 8.33806C79.2897 7.97806 78.8447 7.79806 78.2647 7.79806C77.6247 7.79806 77.1147 8.00306 76.7347 8.41306C76.3647 8.82306 76.1797 9.41806 76.1797 10.1981V14.2631H74.3047V6.25306H76.0897V7.27306C76.3897 6.91306 76.7647 6.63806 77.2147 6.44806C77.6647 6.25806 78.1647 6.16306 78.7147 6.16306C79.3147 6.16306 79.8447 6.27806 80.3047 6.50806C80.7747 6.72806 81.1447 7.05806 81.4147 7.49806C81.7447 7.07806 82.1697 6.75306 82.6897 6.52306C83.2097 6.28306 83.7847 6.16306 84.4147 6.16306ZM94.5357 6.16306C95.3157 6.16306 96.0107 6.33306 96.6207 6.67306C97.2407 7.01306 97.7257 7.49306 98.0757 8.11306C98.4257 8.73306 98.6007 9.44806 98.6007 10.2581C98.6007 11.0681 98.4257 11.7881 98.0757 12.4181C97.7257 13.0381 97.2407 13.5181 96.6207 13.8581C96.0107 14.1981 95.3157 14.3681 94.5357 14.3681C93.9857 14.3681 93.4807 14.2731 93.0207 14.0831C92.5707 13.8931 92.1907 13.6081 91.8807 13.2281V14.2631H90.0957V3.13306H91.9707V7.22806C92.2907 6.87806 92.6657 6.61306 93.0957 6.43306C93.5357 6.25306 94.0157 6.16306 94.5357 6.16306ZM94.3257 12.7631C95.0157 12.7631 95.5807 12.5331 96.0207 12.0731C96.4707 11.6131 96.6957 11.0081 96.6957 10.2581C96.6957 9.50806 96.4707 8.90306 96.0207 8.44306C95.5807 7.98306 95.0157 7.75306 94.3257 7.75306C93.8757 7.75306 93.4707 7.85806 93.1107 8.06806C92.7507 8.26806 92.4657 8.55806 92.2557 8.93806C92.0457 9.31806 91.9407 9.75806 91.9407 10.2581C91.9407 10.7581 92.0457 11.1981 92.2557 11.5781C92.4657 11.9581 92.7507 12.2531 93.1107 12.4631C93.4707 12.6631 93.8757 12.7631 94.3257 12.7631ZM103.336 6.16306C104.516 6.16306 105.416 6.44806 106.036 7.01806C106.666 7.57806 106.981 8.42806 106.981 9.56806V14.2631H105.211V13.2881C104.981 13.6381 104.651 13.9081 104.221 14.0981C103.801 14.2781 103.291 14.3681 102.691 14.3681C102.091 14.3681 101.566 14.2681 101.116 14.0681C100.666 13.8581 100.316 13.5731 100.066 13.2131C99.8264 12.8431 99.7064 12.4281 99.7064 11.9681C99.7064 11.2481 99.9714 10.6731 100.501 10.2431C101.041 9.80306 101.886 9.58306 103.036 9.58306H105.106V9.46306C105.106 8.90306 104.936 8.47306 104.596 8.17306C104.266 7.87306 103.771 7.72306 103.111 7.72306C102.661 7.72306 102.216 7.79306 101.776 7.93306C101.346 8.07306 100.981 8.26806 100.681 8.51806L99.9464 7.15306C100.366 6.83306 100.871 6.58806 101.461 6.41806C102.051 6.24806 102.676 6.16306 103.336 6.16306ZM103.081 13.0031C103.551 13.0031 103.966 12.8981 104.326 12.6881C104.696 12.4681 104.956 12.1581 105.106 11.7581V10.8281H103.171C102.091 10.8281 101.551 11.1831 101.551 11.8931C101.551 12.2331 101.686 12.5031 101.956 12.7031C102.226 12.9031 102.601 13.0031 103.081 13.0031ZM109.388 3.13306H111.263V14.2631H109.388V3.13306ZM116.784 6.16306C117.964 6.16306 118.864 6.44806 119.484 7.01806C120.114 7.57806 120.429 8.42806 120.429 9.56806V14.2631H118.659V13.2881C118.429 13.6381 118.099 13.9081 117.669 14.0981C117.249 14.2781 116.739 14.3681 116.139 14.3681C115.539 14.3681 115.014 14.2681 114.564 14.0681C114.114 13.8581 113.764 13.5731 113.514 13.2131C113.274 12.8431 113.154 12.4281 113.154 11.9681C113.154 11.2481 113.419 10.6731 113.949 10.2431C114.489 9.80306 115.334 9.58306 116.484 9.58306H118.554V9.46306C118.554 8.90306 118.384 8.47306 118.044 8.17306C117.714 7.87306 117.219 7.72306 116.559 7.72306C116.109 7.72306 115.664 7.79306 115.224 7.93306C114.794 8.07306 114.429 8.26806 114.129 8.51806L113.394 7.15306C113.814 6.83306 114.319 6.58806 114.909 6.41806C115.499 6.24806 116.124 6.16306 116.784 6.16306ZM116.529 13.0031C116.999 13.0031 117.414 12.8981 117.774 12.6881C118.144 12.4681 118.404 12.1581 118.554 11.7581V10.8281H116.619C115.539 10.8281 114.999 11.1831 114.999 11.8931C114.999 12.2331 115.134 12.5031 115.404 12.7031C115.674 12.9031 116.049 13.0031 116.529 13.0031ZM122.01 17.2781C121.22 17.2781 120.62 17.1231 120.21 16.8131L120.75 15.4181C121.03 15.6281 121.395 15.7331 121.845 15.7331C122.195 15.7331 122.46 15.6231 122.64 15.4031C122.83 15.1931 122.925 14.8781 122.925 14.4581V6.25306H124.8V14.4131C124.8 15.3031 124.555 16.0031 124.065 16.5131C123.575 17.0231 122.89 17.2781 122.01 17.2781ZM123.855 4.93306C123.515 4.93306 123.23 4.82806 123 4.61806C122.77 4.39806 122.655 4.12806 122.655 3.80806C122.655 3.48806 122.77 3.22306 123 3.01306C123.23 2.79306 123.515 2.68306 123.855 2.68306C124.195 2.68306 124.48 2.78806 124.71 2.99806C124.94 3.19806 125.055 3.45306 125.055 3.76306C125.055 4.09306 124.94 4.37306 124.71 4.60306C124.49 4.82306 124.205 4.93306 123.855 4.93306Z" fill="#383E19"/>
<circle cx="8.93311" cy="47.2487" r="8.5" fill="#FF3939"/>
<circle cx="43.2217" cy="47.2487" r="8.5" fill="#FFB156"/>
<circle cx="74.1816" cy="47.2487" r="8.5" fill="#EFF32F"/>
<circle cx="105.142" cy="47.2487" r="8.5" fill="#31BC00"/>
<circle cx="136.102" cy="47.2487" r="8.5" fill="#00EBB2"/>
<circle cx="167.062" cy="47.2487" r="8.5" fill="#3391FF"/>
<circle cx="198.021" cy="47.2487" r="8.5" fill="#9170F0"/>
<circle cx="228.982" cy="47.2487" r="8.5" fill="#FF61DC"/>
</svg>
