<svg width="37" height="37" viewBox="0 0 37 37" fill="none" xmlns="http://www.w3.org/2000/svg">
<circle cx="18.3091" cy="18.4485" r="17.1987" stroke="#EA7E73"/>
<path d="M10.6475 18.0109C10.1053 16.5981 10.2652 15.134 11.0605 13.977L11.0605 13.9769C11.8509 12.8266 13.157 12.1399 14.5548 12.1399C15.698 12.1399 16.8502 12.5932 17.8863 13.4905L17.9588 13.5616L18.311 13.907L18.6612 13.5595L18.7113 13.5098C19.7701 12.592 20.9218 12.1399 22.0635 12.1399C23.4611 12.1399 24.7672 12.8266 25.5578 13.9769L25.5578 13.977C26.3532 15.1341 26.513 16.5988 25.971 18.0107C25.5215 19.1791 24.5139 20.2066 23.3272 21.3242C23.0412 21.593 22.7524 21.8618 22.4541 22.1394L22.3728 22.215L22.3727 22.2152L22.3598 22.2272C21.2709 23.24 20.0315 24.3929 18.3966 26.0267L18.3952 26.028C18.3913 26.032 18.3873 26.036 18.3831 26.0401C18.3611 26.0623 18.3362 26.0873 18.3101 26.115L18.2219 26.0268L18.2217 26.0266C16.5849 24.3912 15.3453 23.2382 14.2556 22.2246L14.2478 22.2174C13.9198 21.9122 13.6038 21.6178 13.2917 21.3246C12.1048 20.2074 11.0972 19.1802 10.6475 18.0109L10.6475 18.0109Z" stroke="#EA7E73"/>
</svg>
