<svg width="18" height="16" viewBox="0 0 18 16" fill="none" xmlns="http://www.w3.org/2000/svg">
<path d="M1.37845 6.84218C0.836296 5.42942 0.996157 3.96527 1.79144 2.80827L1.79149 2.80819C2.58182 1.65791 3.88793 0.971191 5.28573 0.971191C6.42899 0.971191 7.58112 1.42446 8.61729 2.32183L8.68981 2.39294L9.04201 2.73831L9.39211 2.39082L9.44221 2.34109C10.5011 1.4233 11.6528 0.971191 12.7945 0.971191C14.192 0.971191 15.4982 1.6579 16.2888 2.80824L16.2888 2.80827C17.0841 3.96538 17.2439 5.43011 16.7019 6.84196C16.2524 8.01035 15.2448 9.03791 14.0582 10.1555C13.7721 10.4243 13.4833 10.6931 13.1851 10.9707L13.1038 11.0463L13.1037 11.0465L13.0907 11.0585C12.0019 12.0713 10.7624 13.2242 9.12752 14.858L9.12617 14.8593C9.12225 14.8633 9.11823 14.8673 9.1141 14.8714C9.09207 14.8936 9.06721 14.9186 9.04103 14.9463L8.95283 14.8581L8.95268 14.8579C7.31586 13.2225 6.07622 12.0695 4.98655 11.0559L4.97878 11.0487C4.65074 10.7435 4.33474 10.4491 4.02261 10.1559C2.83573 9.0387 1.82811 8.01154 1.37847 6.84221L1.37845 6.84218Z" stroke="#EA7E73"/>
</svg>
