<svg width="39" height="39" viewBox="0 0 39 39" fill="none" xmlns="http://www.w3.org/2000/svg">
<g id="Layer 4">
<g id="Color">
<g id="08.Whatsapp">
<path id="Background" d="M19.3264 38.8313C29.995 38.8313 38.6436 30.1827 38.6436 19.5141C38.6436 8.84552 29.995 0.19693 19.3264 0.19693C8.65787 0.19693 0.00927734 8.84552 0.00927734 19.5141C0.00927734 30.1827 8.65787 38.8313 19.3264 38.8313Z" fill="#4CAF50"/>
<path id="Icon" d="M19.3266 9.34714C17.4536 9.34785 15.6172 9.86597 14.0199 10.8443C12.4227 11.8227 11.1268 13.2233 10.2752 14.8915C9.4236 16.5598 9.04939 18.4308 9.19387 20.2983C9.33835 22.1658 9.9959 23.957 11.094 25.4744L9.82311 29.2515L13.7348 28.0009C15.0582 28.8738 16.5673 29.4252 18.1417 29.611C19.7161 29.7967 21.3121 29.6118 22.8022 29.0708C24.2924 28.5299 25.6354 27.648 26.724 26.4955C27.8126 25.343 28.6166 23.952 29.0718 22.4334C29.527 20.9149 29.6208 19.311 29.3457 17.7497C29.0706 16.1885 28.4342 14.7132 27.4873 13.4417C26.5405 12.1702 25.3094 11.1378 23.8925 10.4268C22.4755 9.71588 20.9119 9.34614 19.3266 9.34714V9.34714ZM24.7304 23.7257L23.6476 24.8085C22.5089 25.9472 19.4893 24.6941 16.8129 22.0126C14.1364 19.3311 12.9367 16.3191 14.0195 15.1931L15.1023 14.1103C15.312 13.9176 15.5864 13.8107 15.8712 13.8107C16.156 13.8107 16.4304 13.9176 16.64 14.1103L18.2362 15.7015C18.3664 15.828 18.4619 15.9858 18.5135 16.1599C18.5652 16.3339 18.5713 16.5183 18.5312 16.6953C18.4912 16.8724 18.4063 17.0362 18.2848 17.171C18.1633 17.3059 18.0091 17.4072 17.8372 17.4654C17.5835 17.5465 17.3709 17.7222 17.2435 17.9561C17.1162 18.19 17.0839 18.464 17.1535 18.7211C17.4381 19.9157 18.9759 21.3975 20.1171 21.6822C20.3728 21.7358 20.6393 21.6955 20.8676 21.5685C21.0959 21.4415 21.2708 21.2364 21.36 20.9908C21.4176 20.8164 21.5193 20.6598 21.6554 20.5364C21.7915 20.4131 21.9573 20.3271 22.1365 20.2869C22.3157 20.2467 22.5023 20.2536 22.6781 20.3071C22.8538 20.3605 23.0127 20.4586 23.1392 20.5918L24.7329 22.188C24.9253 22.398 25.0318 22.6726 25.0313 22.9573C25.0309 23.2421 24.9234 23.5164 24.7304 23.7257V23.7257Z" fill="white"/>
</g>
</g>
</g>
</svg>
