<svg width="40" height="39" viewBox="0 0 40 39" fill="none" xmlns="http://www.w3.org/2000/svg">
<path d="M20.0935 38.8313C30.7621 38.8313 39.4107 30.1827 39.4107 19.5141C39.4107 8.84552 30.7621 0.19693 20.0935 0.19693C9.42496 0.19693 0.776367 8.84552 0.776367 19.5141C0.776367 30.1827 9.42496 38.8313 20.0935 38.8313Z" fill="#665CAC"/>
<path d="M22.127 9.34717H18.0602C16.1727 9.34717 14.3625 10.097 13.0278 11.4316C11.6932 12.7663 10.9434 14.5765 10.9434 16.464V19.5141C10.9428 20.8614 11.3247 22.1811 12.0446 23.3199C12.7645 24.4588 13.7929 25.3698 15.0101 25.9472V29.3455C15.0113 29.4118 15.0319 29.4763 15.0692 29.5311C15.1066 29.5859 15.1591 29.6286 15.2204 29.654C15.2816 29.6793 15.349 29.6863 15.4141 29.6739C15.4793 29.6616 15.5394 29.6305 15.5871 29.5844L18.5406 26.631H22.127C24.0145 26.631 25.8247 25.8811 27.1594 24.5465C28.494 23.2118 29.2438 21.4016 29.2438 19.5141V16.464C29.2438 14.5765 28.494 12.7663 27.1594 11.4316C25.8247 10.097 24.0145 9.34717 22.127 9.34717V9.34717ZM24.7907 22.6862L23.774 23.7029C22.6913 24.7628 19.8648 23.5529 17.3739 21.0086C14.883 18.4644 13.7901 15.61 14.8322 14.5501L15.8489 13.5334C16.0482 13.3545 16.3072 13.2569 16.575 13.2597C16.8427 13.2625 17.0997 13.3656 17.2951 13.5487L18.7795 15.0737C18.8974 15.1953 18.9824 15.345 19.0266 15.5085C19.0707 15.6721 19.0725 15.8442 19.0319 16.0086C18.9912 16.1731 18.9094 16.3245 18.7941 16.4486C18.6788 16.5727 18.5338 16.6655 18.3728 16.7182C18.1342 16.7914 17.9329 16.9537 17.8108 17.1715C17.6887 17.3892 17.6551 17.6456 17.7171 17.8874C17.9713 19.0159 19.4048 20.4291 20.4723 20.7062C20.713 20.7635 20.9663 20.7311 21.1848 20.6151C21.4033 20.4991 21.572 20.3073 21.6593 20.0758C21.7157 19.9144 21.8127 19.7701 21.941 19.657C22.0692 19.5439 22.2245 19.4657 22.3917 19.43C22.5589 19.3942 22.7326 19.4021 22.8959 19.4529C23.0592 19.5037 23.2067 19.5957 23.3241 19.72L24.806 21.245C24.9839 21.4437 25.0811 21.7018 25.0783 21.9686C25.0754 22.2353 24.9729 22.4913 24.7907 22.6862ZM21.0188 14.1765C20.9177 14.176 20.8167 14.1819 20.7163 14.1943C20.6721 14.1991 20.6273 14.1952 20.5846 14.1827C20.5419 14.1703 20.5021 14.1495 20.4674 14.1217C20.4327 14.0938 20.4038 14.0594 20.3824 14.0204C20.361 13.9814 20.3475 13.9386 20.3427 13.8943C20.3378 13.8501 20.3418 13.8054 20.3542 13.7626C20.3667 13.7199 20.3874 13.6801 20.4153 13.6454C20.4431 13.6107 20.4775 13.5818 20.5165 13.5604C20.5555 13.539 20.5984 13.5255 20.6426 13.5207C20.7675 13.5063 20.8931 13.4995 21.0188 13.5004C21.9183 13.4997 22.7812 13.8562 23.418 14.4915C24.0548 15.1268 24.4132 15.989 24.4145 16.8885C24.4154 17.0142 24.4086 17.1398 24.3942 17.2647C24.3894 17.3089 24.3759 17.3517 24.3545 17.3907C24.3331 17.4297 24.3042 17.4642 24.2695 17.492C24.2348 17.5199 24.195 17.5406 24.1523 17.5531C24.1095 17.5655 24.0648 17.5694 24.0206 17.5646C23.9763 17.5598 23.9335 17.5462 23.8945 17.5249C23.8555 17.5035 23.8211 17.4746 23.7932 17.4399C23.7654 17.4052 23.7446 17.3654 23.7322 17.3226C23.7197 17.2799 23.7158 17.2352 23.7207 17.191C23.7317 17.0905 23.7377 16.9895 23.7384 16.8885C23.7371 16.1683 23.4499 15.4781 22.9399 14.9696C22.43 14.4611 21.739 14.1758 21.0188 14.1765V14.1765ZM23.0522 16.8885C23.0448 16.9734 23.0059 17.0525 22.9431 17.1101C22.8802 17.1677 22.7981 17.1997 22.7129 17.1997C22.6276 17.1997 22.5455 17.1677 22.4826 17.1101C22.4198 17.0525 22.3809 16.9734 22.3735 16.8885C22.3735 16.5292 22.2308 16.1846 21.9767 15.9305C21.7227 15.6765 21.3781 15.5337 21.0188 15.5337C20.9718 15.5378 20.9244 15.5321 20.8797 15.5169C20.835 15.5017 20.794 15.4773 20.7592 15.4454C20.7244 15.4135 20.6966 15.3747 20.6776 15.3315C20.6586 15.2883 20.6488 15.2416 20.6488 15.1944C20.6488 15.1472 20.6586 15.1005 20.6776 15.0573C20.6966 15.0141 20.7244 14.9753 20.7592 14.9434C20.794 14.9115 20.835 14.8872 20.8797 14.872C20.9244 14.8568 20.9718 14.851 21.0188 14.8551C21.5581 14.8551 22.0753 15.0693 22.4566 15.4507C22.8379 15.832 23.0522 16.3492 23.0522 16.8885ZM25.6371 17.9891C25.6296 18.0353 25.6126 18.0794 25.5873 18.1188C25.5619 18.1581 25.5287 18.1919 25.4898 18.2178C25.4508 18.2438 25.4069 18.2614 25.3609 18.2696C25.3148 18.2779 25.2675 18.2765 25.2219 18.2657C25.1764 18.2548 25.1336 18.2347 25.0962 18.2065C25.0588 18.1784 25.0276 18.1428 25.0045 18.1021C24.9815 18.0613 24.9671 18.0163 24.9622 17.9697C24.9573 17.9232 24.9621 17.8761 24.9763 17.8315C25.0497 17.5243 25.0864 17.2094 25.0856 16.8936C25.0856 15.815 24.6571 14.7806 23.8944 14.0179C23.1318 13.2553 22.0974 12.8268 21.0188 12.8268C20.9146 12.8268 20.8078 12.8268 20.7036 12.8268C20.6592 12.8301 20.6146 12.8247 20.5723 12.8108C20.53 12.7969 20.4909 12.7748 20.4571 12.7458C20.389 12.6871 20.3469 12.6038 20.3401 12.5142C20.3334 12.4245 20.3626 12.3358 20.4212 12.2677C20.4798 12.1995 20.5631 12.1574 20.6528 12.1507C20.7748 12.1405 20.8968 12.1354 21.0188 12.1354C22.2781 12.1375 23.485 12.6391 24.3748 13.5303C25.2645 14.4214 25.7642 15.6292 25.7642 16.8885C25.7643 17.259 25.7217 17.6283 25.6371 17.9891V17.9891Z" fill="white"/>
</svg>
