<svg width="21" height="21" viewBox="0 0 21 21" fill="none" xmlns="http://www.w3.org/2000/svg">
<path d="M20.2441 19.1206L16.8067 15.7599L16.7261 15.6374C16.5763 15.4883 16.3715 15.4042 16.1577 15.4042C15.9439 15.4042 15.7391 15.4883 15.5893 15.6374C12.668 18.3174 8.16667 18.4631 5.07053 15.9778C1.97439 13.4925 1.24419 9.14747 3.36421 5.82427C5.48423 2.50107 9.7966 1.23095 13.4414 2.85624C17.0862 4.48152 18.9323 8.49789 17.7555 12.2417C17.6708 12.5122 17.7401 12.8063 17.9373 13.0133C18.1345 13.2203 18.4296 13.3087 18.7116 13.2452C18.9935 13.1817 19.2194 12.976 19.3042 12.7055C20.7109 8.26274 18.5863 3.48165 14.3046 1.45516C10.023 -0.571339 4.86936 0.764923 2.17758 4.59952C-0.514204 8.43411 0.0637045 13.6162 3.53746 16.7936C7.01121 19.971 12.3383 20.19 16.0727 17.309L19.1162 20.2846C19.4305 20.5906 19.9387 20.5906 20.253 20.2846C20.567 19.9743 20.567 19.4747 20.253 19.1644L20.2441 19.1206Z" fill="#4C5228"/>
</svg>
